<?xml version="1.0" encoding="UTF-8"?>
<svg id="Black" xmlns="http://www.w3.org/2000/svg" viewBox="0 0 841.89 595.28">
  <g>
    <polygon points="88.01 312.75 73.57 312.75 73.57 380.26 110.29 380.26 110.29 365.81 88.01 365.81 88.01 312.75"/>
    <polygon points="131.96 357.38 154.84 357.38 154.84 342.94 131.96 342.94 131.96 335.63 156.04 335.63 156.04 321.18 117.52 321.18 117.52 380.26 157.25 380.26 157.25 365.81 131.96 365.81 131.96 357.38"/>
  </g>
  <path d="M345.5,176.64c-.39-.5-.94-.83-1.57-.91l-39.68-5.07c-1.27-.16-2.41.73-2.58,1.99l-4.91,38.21-8.28-26.47c-.31-.97-1.18-1.62-2.21-1.62h-21.45c-.62,0-1.2.24-1.64.69-.43.43-.68,1.01-.66,1.64l.24,45.28c-7.08-15.22-19.77-25.39-34.22-25.39-18.79,0-34.6,17.2-38.97,40.34v-51.91c0-1.28-1.04-2.32-2.32-2.32h-34.43c-.96,0-1.84.62-2.17,1.53l-9.01,25.31-4.25-24.92c-.19-1.12-1.15-1.93-2.28-1.93h-35.92c-1.26.01-2.3,1.05-2.3,2.33l-.12,77.18c0,.58.22,1.15.62,1.58l9.86,10.61c.65.7,1.64.93,2.54.58.88-.35,1.46-1.2,1.46-2.16l-.06-44.41,23.02,21.55c.53.49,1.24.71,1.95.59.72-.12,1.32-.56,1.66-1.19l7.13-13.44,11.29,66.83c.12.7.54,1.3,1.17,1.64.35.19.72.29,1.11.29.3,0,.6-.06.89-.17l28.72-11.93c.87-.35,1.44-1.19,1.44-2.13v-27.63c4.37,23.14,20.18,40.33,38.97,40.33,14.66,0,27.51-10.46,34.53-26.05v2.13c.01,1.26,1.05,2.3,2.32,2.3h21.29c1.14,0,2.11-.82,2.29-1.94l5.22-32.51,7.36,32.64c.24,1.06,1.17,1.81,2.25,1.81l21.64.04h.01c1.13,0,2.08-.8,2.28-1.92l5.96-35.93c-10.23-6.56-20.83-14.36-31.97-23.5-.42-.35-.65-.93-.6-1.43.05-.4.26-.73.6-.9,4.79-2.51,18.12-4.05,36.96-4.28l7.24-43.6c.11-.62-.05-1.25-.42-1.76ZM228.54,292.47c-9.04,0-16.4-9.89-16.4-22.02s7.36-22.02,16.4-22.02,16.4,9.87,16.4,22.02-7.36,22.02-16.4,22.02Z"/>
  <path d="M665.7,330.21c-1.47-11.35-6.65-20.47-15.38-27.1-7-5.31-16.13-8.98-27.38-10.99-.1.54-.25,1.1-.47,1.63-1.24,3.14-4.24,5.18-7.61,5.18-.28,0-.57-.01-.84-.05-12.88-1.36-27.15-2.67-43.38-3.96,11.5,12.98,11.63,13.79,11.93,15.46.84,4.27-2.47,7.57-15.13,14.42.18,4.42.3,8.15.36,11.31,2.05,32.64,4.62,73.93,5.27,84.44.06.84.45,1.6,1.08,2.14.55.46,1.23.7,1.93.7.12,0,.25,0,.37-.02,8.58-1.04,52.57-7.73,75.77-37.61,11.76-15.13,16.3-33.82,13.47-55.53ZM624.75,341.3c-5.85,7.55-17.04,9.25-19.23,9.51l-.05-.57c-.35-5.48-1.76-27.99-1.97-31.93,3.06-.43,5.84-.65,8.36-.65,5.55,0,9.76,1.06,12.55,3.18,2.11,1.6,3.35,3.8,3.71,6.56.71,5.44-.42,10.11-3.36,13.89Z"/>
  <path d="M691.02,229.54c-.58-.46-1.31-.61-2.02-.43l-17.52,4.65c-.3.09-.61.04-.87-.13-.26-.16-.44-.42-.5-.72l-.97-4.93c-.11-.58.24-1.13.81-1.29l12.3-3.22c.99-.27,1.7-1.16,1.73-2.18l.48-21.24c0-.73-.3-1.41-.88-1.87-.57-.44-1.3-.6-2-.43l-16.34,4.15c-.29.08-.6.03-.85-.14-.27-.16-.44-.42-.5-.72l-.94-4.78c-.1-.57.25-1.13.81-1.28l13.23-3.51c.99-.27,1.7-1.16,1.73-2.17l.39-16.29c.01-.75-.31-1.45-.9-1.89-.6-.46-1.35-.59-2.07-.39l-38.57,11.52c-.92.28-1.58,1.12-1.63,2.1l-1.39,26.09c-.84-7.34-4.01-13.46-9.47-18.18-10.85-9.38-30.2-13.03-57.51-10.87-1.19.08-2.13,1.09-2.13,2.3.01,8.97.01,54.19.01,76.7,7.98,3.18,15.42,6.52,22.33,10.01,11.47-3.03,25.31-8.83,35.02-19.84,5.4-6.11,8.97-13.23,10.77-21.29l-1.73,32.53c-.03.74.26,1.42.81,1.89.43.36.95.54,1.49.54.17,0,.34-.01.51-.04l55-12.1c1.03-.23,1.78-1.14,1.8-2.21l.45-18.48c.02-.72-.3-1.41-.88-1.86ZM599.56,245.63c0,1.17-.95,2.11-2.1,2.11h-1.81c-1.17,0-2.11-.94-2.11-2.11v-36.72c0-1.15.94-2.11,2.11-2.11h1.81c1.15,0,2.1.96,2.1,2.11v36.72Z"/>
  <path d="M713.94,335.87c.38-.31.92-.35,1.33-.08l27.98,17.98c.84.55,1.98.49,2.76-.16l21.48-17.97c.57-.49.87-1.21.82-1.97l-3.51-46.55c-.08-1.11-.95-2.01-2.06-2.15l-24.41-2.95c-.75-.08-1.49.19-2,.74-.51.55-.72,1.29-.57,2.02l5.72,29.58c.09.46-.09.88-.47,1.14-.38.26-.83.27-1.22.03l-17.66-11c-.88-.55-2-.46-2.78.22l-12.55,10.93c-.31.27-.72.35-1.11.21-.38-.13-.66-.45-.73-.85l-5.78-31.41c-.2-1.11-1.16-1.92-2.29-1.92h-49.91c-.7,0-1.36.31-1.81.85-.45.54-.63,1.25-.49,1.93l2.28,11.83c.14.74.64,1.36,1.33,1.68,14.11,6.44,22.23,17.12,24.12,31.74,3.57,27.49-4.73,49.81-24.67,66.35-.31.26-.55.6-.69.97l-1.1,2.97c-.25.68-.17,1.43.22,2.05.39.62,1.02,1.01,1.75,1.08l112.09,11.21c.08,0,.16.01.24.01.55,0,1.08-.19,1.5-.55.49-.41.78-.98.83-1.61l3.47-46.45c.07-.85-.34-1.67-1.05-2.13l-6.6-4.29c-.87-.56-1.98-.5-2.77.15l-18,15c-.36.31-.9.34-1.31.08l-23.92-15.26c-.86-.53-1.97-.46-2.76.18l-9.36,7.89c-.38.32-.91.35-1.33.08l-11.72-7.54c-.3-.2-.49-.52-.51-.87-.02-.36.13-.69.4-.92l26.82-22.29Z"/>
  <g>
    <path d="M327.67,380.24c-.66-.52-1.5-.69-2.31-.48l-21.93,5.81c-.44.12-.9.05-1.29-.19-.39-.24-.65-.62-.74-1.07l-1.2-6.17c-.16-.84.36-1.68,1.19-1.9l15.39-4.05c1.13-.3,1.94-1.32,1.96-2.49l.6-26.58c.02-.83-.34-1.6-.99-2.12-.65-.52-1.48-.7-2.29-.49l-20.44,5.19c-.44.11-.89.04-1.28-.2s-.64-.62-.73-1.07l-1.17-5.99c-.16-.84.36-1.67,1.19-1.89l16.57-4.39c1.13-.3,1.93-1.32,1.96-2.48l.5-20.38c.02-.85-.36-1.64-1.04-2.16-.68-.52-1.54-.67-2.35-.43l-48.25,14.42c-1.06.32-1.82,1.28-1.88,2.39l-5.12,96.92c-.04.83.29,1.61.93,2.15.48.41,1.08.63,1.7.63.19,0,.38-.02.57-.06l68.82-15.14c1.19-.26,2.04-1.29,2.07-2.51l.56-23.12c.02-.84-.34-1.61-1-2.13Z"/>
    <path d="M181,321.38c-1.26-.1-2.4.77-2.6,2.01-2.01,12.16-14.03,84.29-16.18,97.18-.11.66.05,1.32.46,1.85.4.53.99.86,1.66.94,1.89.2,5.95.56,11.34.56,14,0,36.92-2.38,53.65-16,11.75-9.56,18.57-23.12,20.26-40.33.89-9-1.47-16.94-7-23.6-10.26-12.35-30.98-19.95-61.59-22.6ZM219.73,357.57c-2,5.18-6.94,8.12-11,6.55-1.95-.75-3.42-2.43-4.13-4.71-.73-2.33-.59-5,.39-7.53,1.64-4.24,5.23-6.97,8.71-6.97.78,0,1.55.14,2.29.42,4.07,1.57,5.75,7.06,3.75,12.25Z"/>
  </g>
  <path d="M616.75,288.24c-8.25-6.32-17.93-12.27-28.97-17.84-6.91-3.49-14.35-6.83-22.33-10.01-10.76-4.29-22.47-8.32-35.1-12.04l3.56-21.52c3.24-16.67-3.48-50.56-34.27-57.21l-29.36-6.35c-17.13-3.7-29.55,8.85-32.97,23.15l-1,3.91c-.04.18-.03.39.04.56,2.23,4.9,4.71,10.05,7.81,14.7l-9.6-4.41c-.22-.09-.47-.09-.7.01-.22.11-.39.3-.45.55l-6.57,25.85c-13.94-1.75-27.4-3.05-40.05-3.95v-3c3.45-.28,6.35-1.01,8.2-2.51,2.59-2.07,8.5-9.03,7.6-28.88-.01-.25.13-.48.37-.57l17.51-6.51c.41-.14.65-.53.61-.96-.03-.42-.35-.76-.77-.83-6.85-1.26-13.6-3.83-19.55-6.12-5-1.9-9.29-3.55-12.37-3.86-5.44-.58-10.63.89-14.24,3.99-7.99,6.9-7.42,18.68-7.14,24.32.31,6.18.65,13.17-6.17,18.27-.29.21-.41.56-.33.9.08.34.36.59.71.63,1.07.14,2.23.31,3.46.48,3.72.53,7.92,1.11,12.05,1.47v2.51c-14.16-.81-27.04-1.12-38.05-.97-18.84.23-32.17,1.77-36.96,4.28-.34.17-.55.5-.6.9-.05.5.18,1.08.6,1.43,11.14,9.14,21.74,16.94,31.97,23.5,9.74,6.24,19.14,11.37,28.33,15.45l-14.22,17.47c-.89,1.09-1.03,2.67-.32,3.91l11.77,20.67c.61,1.09,1.04,2.23,1.3,3.43-.33,1.81-3.76,22.52,6.55,47.76,2.51,6.15,13.04,19.26,25.58,31.89,1.3,1.3,2.96,2.94,4.88,4.76-36.29-3.33-64.4.3-65.38,8.78-1.05,9.09,29.43,19.82,69.36,24.42,11.57,1.34,22.79,2.01,32.91,2.01,6.42,0,12.37-.26,17.71-.82,9.9-1.01,21.83-3.43,22.49-9.17.29-2.48-1.78-5.07-5.72-7.62,3.34-1.04,6.09-2.23,7.83-3.58.02.03.03.05.04.07,2.77,12.01,2.92,12.01,3.52,12.01h.12l.11-.04c8.67-3.42,17.49-12.29,26.21-26.38,6.48-10.44,10.47-20.01,10.57-20.02,4.15,5.96,9.49,12.99,11.14,12.61,7.16-1.63,16.99-38.59,18.06-42.72.02-.05.08-.1.08-.1,4.04,1.84,13.6,5.96,15.21,4.36,1.48-1.48.75-21.08.37-29.46,7.2-3.79,15.7-8.71,15.34-10.55-.07-.41-.3-1.4-19.19-22.43,21.66,1.63,40.06,3.25,56.17,4.96.12.01.24.02.36.02,1.27,0,2.37-.74,2.85-1.96.53-1.32.15-2.74-.97-3.6ZM378.39,179.62c.72-.58,4.78-3.67,9.68-3.67s8.96,3.09,9.67,3.67c.06.05.06.13,0,.18-.63.52-3.85,2.97-7.96,3.55.96-.58,1.6-1.63,1.6-2.83,0-1.84-1.48-3.32-3.31-3.32s-3.32,1.48-3.32,3.32c0,1.2.65,2.25,1.61,2.83-4.12-.58-7.33-3.03-7.97-3.55-.06-.05-.06-.13,0-.18ZM384.69,220.75v2.74c-1.98-.14-3.93-.26-5.85-.38v-2.5c1.52.1,3.03.16,4.47.16.47,0,.92,0,1.38-.02ZM441.21,389.68l-8.77,7.75c-.71.64-1.77.7-2.56.17-16.41-11.11-40.31-37.07-44.13-46.28-9.68-23.41-5.94-42.39-5.9-42.57l.02-.14-.02-.12c-.28-1.27-.74-2.46-1.35-3.54l-10.78-18.67c-.41-.71-.33-1.6.18-2.24l2.92-3.54c2.12.76,4.1,1.42,6.08,2.02,5.72,1.77,17.21,3.36,36.16,5.01-3.35,2.65-6.16,6.11-8.15,10.06-3.54,6.95-4.28,14.85-2.06,21.66,1.81,5.51,5.46,9.88,10.29,12.32,6.61,3.35,14.66,2.71,21.66-1.68l7.37,57.25c.12.95-.23,1.9-.96,2.54ZM428.14,291.35c1.99,0,3.96.44,5.79,1.37,7.25,3.67,9.61,13.65,5.26,22.24-2.12,4.18-5.49,7.4-9.47,9.08-3.98,1.66-8.08,1.6-11.57-.17-3.51-1.78-5.99-5.06-6.99-9.24-1.01-4.21-.39-8.83,1.72-13,3.26-6.43,9.35-10.28,15.26-10.28ZM498.89,299.92c-2.54-1.47-11.61-6.3-21.53-6.3-8.91,0-18.64,4.41-21.52,5.71-.5-2.49-2.61-10.87-8.92-17.85,12.22.83,25.41,1.65,39.35,2.52,7.11.45,14.37.9,21.74,1.36l4.14.28c-6.75,4.9-11.75,12.09-13.26,14.28ZM532.38,313.37c-3.6,7.12-11.42,10.43-17.43,7.38-6.01-3.03-7.96-11.31-4.35-18.42,1.76-3.47,4.55-6.14,7.86-7.54,1.59-.66,3.21-.99,4.77-.99,1.67,0,3.31.38,4.8,1.14,6.01,3.04,7.96,11.3,4.35,18.43ZM589.64,281.45c-.15.47-.72.94-1.59.84-3.92-.33-8.65-.81-13.99-1.39-5.33-.58-11.29-1.25-17.67-1.96-30.61-3.44-72.53-8.13-116.16-10.6-22.2-1.26-46.02-2.83-54.35-4.95-4.47-1.13-9.03-2.55-13.58-4.21-11.71-4.25-24.03-10.27-36.8-18-4.45-2.7-8.97-5.6-13.53-8.71,2.53-.97,7.78-1.55,15.27-1.73,18.31-.46,49.95,1.38,87.61,5.29,30.52,3.15,59.72,8,84.46,14.02,17.17,4.17,38.27,10.78,56.14,18.33,3.48,1.48,6.84,2.98,10.02,4.51,5.08,2.45,9.72,4.95,13.69,7.47.45.27.63.68.48,1.09Z"/>
</svg>